<svg width="306" height="306" viewBox="0 0 306 306" fill="none" xmlns="http://www.w3.org/2000/svg">
<path d="M186.619 179.095L186.672 179.044L186.672 179.044L186.959 178.762C191.681 174.139 195.622 170.28 198.189 166.894C200.858 163.372 202.832 159.351 201.842 154.623C200.853 149.895 197.432 147.003 193.574 144.847C189.865 142.774 184.708 140.82 178.528 138.478L178.152 138.336L165.505 133.542L181.003 92.6522L181.115 92.3561C182.577 88.4977 183.822 85.2141 184.461 82.7641C184.783 81.5307 185.081 80.0532 184.996 78.5978C184.905 77.0211 184.291 74.7858 182.102 73.3547C179.913 71.9235 177.62 72.2579 176.139 72.8064C174.772 73.3126 173.537 74.178 172.537 74.9673C170.549 76.5353 168.04 78.9923 165.092 81.8795L164.866 82.101L119.014 127.003L118.727 127.284C114.005 131.908 110.064 135.766 107.497 139.152C104.828 142.674 102.854 146.696 103.844 151.423L108.675 150.412L103.844 151.423C104.834 156.151 108.254 159.044 112.112 161.199C115.821 163.272 120.979 165.226 127.159 167.568L127.534 167.711L140.181 172.504L124.684 213.394L124.571 213.69C123.109 217.549 121.864 220.832 121.225 223.282C120.903 224.516 120.606 225.993 120.69 227.449C120.782 229.025 121.395 231.261 123.584 232.692C125.773 234.123 128.066 233.788 129.548 233.24C130.915 232.734 132.149 231.868 133.15 231.079C135.138 229.511 137.646 227.054 140.594 224.167L140.821 223.945L186.619 179.096L186.619 179.095ZM163.588 132.763C163.587 132.763 163.59 132.764 163.594 132.767C163.59 132.764 163.588 132.763 163.588 132.763ZM164.819 135.487C164.818 135.491 164.818 135.494 164.818 135.494C164.817 135.495 164.818 135.492 164.819 135.487ZM140.869 170.552C140.869 170.552 140.868 170.554 140.867 170.56C140.868 170.555 140.869 170.552 140.869 170.552Z" fill="white" stroke="white" stroke-width="9.87126"/>
</svg>
